# Blender v2.75 (sub 0) OBJ File: 'test_table.blend'
# www.blender.org
o Cube
v -1.471186 -0.907330 -1.942850
v -1.471186 0.907330 -1.942850
v 1.471186 0.907330 -1.942850
v 1.471185 -0.907331 -1.942850
v -1.471187 -0.907330 0.057150
v 1.471186 -0.907330 0.057150
v -1.471185 0.907331 0.057150
v 1.471187 0.907330 0.057150
v 1.170000 -0.585000 0.057150
v -1.170001 -0.585000 0.057150
v -1.169999 0.585000 0.057150
v -0.114300 0.585000 0.057150
v -0.114300 0.699300 0.057150
v -0.112104 0.721599 0.057150
v -0.105599 0.743041 0.057150
v -0.095037 0.762802 0.057150
v -0.080822 0.780122 0.057150
v -0.063502 0.794337 0.057150
v -0.043741 0.804899 0.057150
v -0.022299 0.811404 0.057150
v 0.000000 0.813600 0.057150
v 0.022299 0.811404 0.057150
v 0.043741 0.804899 0.057150
v 0.063502 0.794337 0.057150
v 0.080822 0.780122 0.057150
v 0.095037 0.762802 0.057150
v 0.105599 0.743041 0.057150
v 0.112104 0.721599 0.057150
v 0.114300 0.699300 0.057150
v 0.114300 0.699300 0.057150
v 0.114300 0.585000 0.057150
v 1.170000 0.585000 0.057150
v 1.205100 -0.620100 0.000000
v -1.205101 -0.620100 0.000000
v -1.205099 0.620100 0.000000
v -0.114300 0.587020 0.053861
v -0.114300 0.699300 0.000000
v -0.114300 0.699300 -0.114300
v -0.112104 0.721599 -0.114300
v -0.105599 0.743041 -0.114300
v -0.095037 0.762802 -0.114300
v -0.080822 0.780122 -0.114300
v -0.063502 0.794337 -0.114300
v -0.043741 0.804899 -0.114300
v -0.022299 0.811404 -0.114300
v 0.000000 0.813600 -0.114300
v 0.022299 0.811404 -0.114300
v 0.043741 0.804899 -0.114300
v 0.063502 0.794337 -0.114300
v 0.080822 0.780122 -0.114300
v 0.095037 0.762802 -0.114300
v 0.105599 0.743041 -0.114300
v 0.112104 0.721599 -0.114300
v 0.114300 0.699300 -0.114300
v 0.114300 0.699300 0.000000
v 0.114300 0.699300 0.000000
v 0.114300 0.587020 0.053861
v 1.205100 0.620100 0.000000
v 0.114300 0.620100 0.000000
v 0.114300 0.470700 0.000000
v -0.114300 0.470700 0.000000
v -0.114300 0.620100 0.000000
v -0.114300 0.619063 0.001689
v -0.114300 0.593155 0.043871
v -0.112104 0.677001 0.000000
v -0.112104 0.677001 -0.114300
v 0.000000 0.585000 -0.114300
v 0.022299 0.587196 -0.114300
v 0.043741 0.593700 -0.114300
v 0.063502 0.604263 -0.114300
v 0.080822 0.618478 -0.114300
v 0.095037 0.635798 -0.114300
v 0.105599 0.655559 -0.114300
v 0.112104 0.677001 -0.114300
v -0.105599 0.655559 -0.114300
v -0.095037 0.635798 -0.114300
v -0.080822 0.618478 -0.114300
v -0.063502 0.604263 -0.114300
v -0.043741 0.593701 -0.114300
v -0.022299 0.587196 -0.114300
v 0.112104 0.677001 0.000000
v 0.114300 0.593155 0.043871
v 0.114300 0.619063 0.001689
v -0.114300 0.617449 0.004317
v -0.114300 0.603379 0.027226
v -0.105599 0.655559 0.000000
v -0.022299 0.587196 0.000000
v 0.000000 0.585000 0.000000
v 0.022299 0.587196 0.000000
v 0.043741 0.593700 0.000000
v 0.063502 0.604263 0.000000
v 0.080822 0.618478 0.000000
v 0.082154 0.620100 0.000000
v 0.105599 0.655559 0.000000
v 0.095037 0.635798 0.000000
v -0.095037 0.635798 0.000000
v -0.082154 0.620100 0.000000
v -0.080822 0.618478 0.000000
v -0.063502 0.604263 0.000000
v -0.043741 0.593701 0.000000
v 0.114300 0.603379 0.027226
v 0.114300 0.617449 0.004317
vt 0.733339 0.467475
vt 0.266660 0.467475
vt 0.266660 0.733340
vt 0.346558 0.000265
vt 0.346558 0.466944
vt 0.692320 0.466944
vt 0.958715 0.346027
vt 0.692850 0.346027
vt 0.692850 0.000265
vt 0.346027 0.000265
vt 0.346027 0.466944
vt 0.000265 0.466944
vt 0.612422 0.999735
vt 0.612422 0.733870
vt 0.266660 0.733870
vt 0.234333 0.498544
vt 0.266130 0.467475
vt 0.266130 0.934154
vt 0.032062 0.498544
vt 0.000265 0.467475
vt 0.009511 0.700814
vt 0.000265 0.934154
vt 0.032062 0.903085
vt 0.234333 0.903085
vt 0.948807 0.474048
vt 0.959511 0.467475
vt 0.959511 0.918864
vt 0.634889 0.740444
vt 0.624186 0.733870
vt 0.624186 0.966138
vt 0.959245 0.247365
vt 0.959245 0.445079
vt 0.959861 0.247365
vt 0.959861 0.204553
vt 0.959245 0.006839
vt 0.959245 0.204553
vt 0.612953 0.740444
vt 0.623656 0.733870
vt 0.623656 0.966138
vt 0.068855 0.689416
vt 0.221664 0.874098
vt 0.068855 0.721270
vt 0.969948 0.451652
vt 0.969948 0.247365
vt 0.961732 0.247365
vt 0.961732 0.204553
vt 0.969948 0.204553
vt 0.969948 0.000265
vt 0.969112 0.247311
vt 0.969619 0.247340
vt 0.964830 0.247294
vt 0.964830 0.204623
vt 0.969618 0.204578
vt 0.969112 0.204607
vt 0.052909 0.705343
vt 0.733339 0.733340
vt 0.692320 0.000265
vt 0.958715 0.000265
vt 0.000265 0.000265
vt 0.266660 0.999735
vt 0.020787 0.719997
vt 0.020787 0.681632
vt 0.032062 0.681054
vt 0.032062 0.720575
vt 0.018587 0.682113
vt 0.016472 0.683300
vt 0.018587 0.719516
vt 0.014523 0.685136
vt 0.016472 0.718329
vt 0.014523 0.716493
vt 0.012814 0.687544
vt 0.012814 0.714085
vt 0.011412 0.690428
vt 0.011412 0.711201
vt 0.010370 0.693681
vt 0.010370 0.707948
vt 0.009728 0.697184
vt 0.009728 0.704445
vt 0.948807 0.912290
vt 0.634889 0.959564
vt 0.612953 0.959564
vt 0.047994 0.536589
vt 0.221663 0.536589
vt 0.047994 0.874098
vt 0.047994 0.721349
vt 0.047994 0.689337
vt 0.050212 0.714236
vt 0.050212 0.696451
vt 0.047994 0.716848
vt 0.048221 0.716661
vt 0.048221 0.694025
vt 0.047994 0.693839
vt 0.051691 0.711468
vt 0.051691 0.699218
vt 0.052601 0.708466
vt 0.052601 0.702221
vt 0.000000 0.000000
vn 0.000000 0.000000 -1.000000
vn -0.000000 -1.000000 0.000000
vn -1.000000 0.000000 0.000000
vn 0.000000 1.000000 0.000000
vn 1.000000 -0.000000 -0.000000
vn 0.000000 0.000000 1.000000
vn 0.000000 0.852100 -0.523300
vn 0.852100 -0.000000 -0.523300
vn -0.000000 -0.852100 -0.523400
vn -0.000000 -0.852100 -0.523300
vn -0.852100 0.000000 -0.523300
vn 0.995200 -0.098000 0.000000
vn 0.956900 -0.290300 0.000000
vn 0.881900 -0.471400 0.000000
vn 0.773000 -0.634400 0.000000
vn 0.634400 -0.773000 0.000000
vn 0.471400 -0.881900 0.000000
vn 0.290300 -0.956900 0.000000
vn 0.098000 -0.995200 0.000000
vn -0.098000 -0.995200 0.000000
vn -0.290300 -0.956900 0.000000
vn -0.471400 -0.881900 0.000000
vn -0.634400 -0.773000 0.000000
vn -0.773000 -0.634400 0.000000
vn -0.881900 -0.471400 0.000000
vn -0.956900 -0.290300 0.000000
vn -0.995200 -0.098000 0.000000
vn 0.995200 0.098000 0.000000
vn -0.995200 0.098000 0.000000
vn 0.956900 0.290300 0.000000
vn 0.098000 0.995200 0.000000
vn -0.098000 0.995200 0.000000
vn -0.290300 0.956900 0.000000
vn -0.471400 0.881900 0.000000
vn -0.634400 0.773000 0.000000
vn -0.881900 0.471400 0.000000
vn -0.956900 0.290300 0.000000
vn 0.881900 0.471400 0.000000
vn 0.634400 0.773000 0.000000
vn 0.471400 0.881900 0.000000
vn 0.290300 0.956900 0.000000
vn -0.773000 0.634400 0.000000
vn 0.773000 0.634400 0.000000
s off
f 2/1/1 3/2/1 4/3/1
f 1/4/2 4/5/2 6/6/2
f 5/7/3 7/8/3 2/9/3
f 7/10/4 8/11/4 3/12/4
f 8/13/5 6/14/5 4/15/5
f 10/16/6 5/17/6 6/18/6
f 10/16/6 11/19/6 7/20/6
f 21/21/6 8/22/6 7/20/6
f 32/23/6 9/24/6 6/18/6
f 9/25/7 33/26/7 34/27/7
f 10/28/8 34/29/8 35/30/8
f 12/31/9 11/32/9 36/33/9
f 57/34/10 32/35/10 31/36/10
f 32/37/11 58/38/11 33/39/11
f 61/40/6 33/41/6 60/42/6
f 11/32/10 35/43/10 62/44/10
f 36/33/10 11/32/10 64/45/10
f 82/46/9 32/35/9 57/34/9
f 59/47/10 58/48/10 32/35/10
f 84/49/10 11/32/10 63/50/10
f 64/45/9 11/32/9 85/51/9
f 101/52/10 32/35/10 82/46/10
f 83/53/10 32/35/10 102/54/10
f 85/51/10 11/32/10 84/49/10
f 102/54/10 32/35/10 101/52/10
f 60/42/6 88/55/6 61/40/6
f 1/56/1 2/1/1 4/3/1
f 5/57/2 1/4/2 6/6/2
f 1/58/3 5/7/3 2/9/3
f 2/59/4 7/10/4 3/12/4
f 3/60/5 8/13/5 4/15/5
f 9/24/6 10/16/6 6/18/6
f 5/17/6 10/16/6 7/20/6
f 30/61/6 32/23/6 8/22/6
f 13/62/6 11/19/6 12/63/6
f 30/61/6 31/64/6 32/23/6
f 14/65/6 11/19/6 13/62/6
f 29/61/6 30/61/6 8/22/6
f 15/66/6 11/19/6 14/65/6
f 28/67/6 29/61/6 8/22/6
f 16/68/6 11/19/6 15/66/6
f 27/69/6 28/67/6 8/22/6
f 7/20/6 11/19/6 16/68/6
f 26/70/6 27/69/6 8/22/6
f 7/20/6 16/68/6 17/71/6
f 25/72/6 26/70/6 8/22/6
f 7/20/6 17/71/6 18/73/6
f 24/74/6 25/72/6 8/22/6
f 7/20/6 18/73/6 19/75/6
f 23/76/6 24/74/6 8/22/6
f 7/20/6 19/75/6 20/77/6
f 22/78/6 23/76/6 8/22/6
f 7/20/6 20/77/6 21/21/6
f 21/21/6 22/78/6 8/22/6
f 8/22/6 32/23/6 6/18/6
f 10/79/7 9/25/7 34/27/7
f 11/80/8 10/28/8 35/30/8
f 9/81/11 32/37/11 33/39/11
f 61/40/6 35/82/6 34/83/6
f 58/84/6 59/85/6 60/42/6
f 61/40/6 62/86/6 35/82/6
f 33/41/6 58/84/6 60/42/6
f 33/41/6 61/40/6 34/83/6
f 63/50/10 11/32/10 62/44/10
f 83/53/9 59/47/9 32/35/9
f 91/87/6 60/42/6 59/85/6
f 99/88/6 62/86/6 61/40/6
f 59/85/6 93/89/6 92/90/6
f 98/91/6 97/92/6 62/86/6
f 59/85/6 92/90/6 91/87/6
f 99/88/6 98/91/6 62/86/6
f 60/42/6 91/87/6 90/93/6
f 100/94/6 99/88/6 61/40/6
f 89/95/6 60/42/6 90/93/6
f 87/96/6 100/94/6 61/40/6
f 88/55/6 60/42/6 89/95/6
f 88/55/6 87/96/6 61/40/6
f 39/97/12 37/97/12 38/97/12
f 14/97/13 39/97/13 40/97/13
f 15/97/14 40/97/14 41/97/14
f 16/97/15 41/97/15 42/97/15
f 17/97/16 42/97/16 43/97/16
f 18/97/17 43/97/17 44/97/17
f 19/97/18 44/97/18 45/97/18
f 20/97/19 45/97/19 46/97/19
f 21/97/20 46/97/20 47/97/20
f 22/97/21 47/97/21 48/97/21
f 23/97/22 48/97/22 49/97/22
f 24/97/23 49/97/23 50/97/23
f 25/97/24 50/97/24 51/97/24
f 26/97/25 51/97/25 52/97/25
f 27/97/26 52/97/26 53/97/26
f 28/97/27 53/97/27 56/97/27
f 66/97/28 38/97/28 37/97/28
f 38/97/6 54/97/6 46/97/6
f 54/97/29 74/97/29 81/97/29
f 75/97/30 66/97/30 65/97/30
f 80/97/31 87/97/31 88/97/31
f 67/97/32 88/97/32 89/97/32
f 68/97/33 89/97/33 90/97/33
f 69/97/34 90/97/34 91/97/34
f 70/97/35 91/97/35 92/97/35
f 73/97/36 72/97/36 95/97/36
f 74/97/37 73/97/37 94/97/37
f 76/97/38 75/97/38 86/97/38
f 77/97/39 98/97/39 99/97/39
f 78/97/40 99/97/40 100/97/40
f 79/97/41 100/97/41 87/97/41
f 71/97/42 93/97/42 72/97/42
f 97/97/43 77/97/43 76/97/43
f 30/97/3 29/97/3 55/97/3
f 29/97/3 56/97/3 55/97/3
f 30/97/3 102/97/3 101/97/3
f 81/97/6 94/97/6 59/97/6
f 13/97/5 36/97/5 64/97/5
f 86/97/6 65/97/6 62/92/6
f 37/97/12 39/97/12 14/97/12
f 14/97/12 13/97/12 37/97/12
f 15/97/13 14/97/13 40/97/13
f 16/97/14 15/97/14 41/97/14
f 17/97/15 16/97/15 42/97/15
f 18/97/16 17/97/16 43/97/16
f 19/97/17 18/97/17 44/97/17
f 20/97/18 19/97/18 45/97/18
f 21/97/19 20/97/19 46/97/19
f 22/97/20 21/97/20 47/97/20
f 23/97/21 22/97/21 48/97/21
f 24/97/22 23/97/22 49/97/22
f 25/97/23 24/97/23 50/97/23
f 26/97/24 25/97/24 51/97/24
f 27/97/25 26/97/25 52/97/25
f 28/97/26 27/97/26 53/97/26
f 54/97/3 55/97/3 56/97/3
f 56/97/27 29/97/27 28/97/27
f 56/97/27 53/97/27 54/97/27
f 65/97/28 66/97/28 37/97/28
f 77/97/6 80/97/6 67/97/6
f 77/97/6 78/97/6 79/97/6
f 75/97/6 76/97/6 77/97/6
f 38/97/6 66/97/6 75/97/6
f 40/97/6 39/97/6 38/97/6
f 42/97/6 41/97/6 40/97/6
f 44/97/6 43/97/6 42/97/6
f 42/97/6 45/97/6 44/97/6
f 48/97/6 47/97/6 46/97/6
f 50/97/6 49/97/6 48/97/6
f 54/97/6 51/97/6 50/97/6
f 54/97/6 53/97/6 52/97/6
f 73/97/6 74/97/6 54/97/6
f 71/97/6 72/97/6 73/97/6
f 67/97/6 70/97/6 71/97/6
f 67/97/6 68/97/6 69/97/6
f 77/97/6 79/97/6 80/97/6
f 38/97/6 75/97/6 77/97/6
f 42/97/6 40/97/6 38/97/6
f 46/97/6 45/97/6 42/97/6
f 54/97/6 48/97/6 46/97/6
f 54/97/6 52/97/6 51/97/6
f 67/97/6 73/97/6 54/97/6
f 67/97/6 69/97/6 70/97/6
f 38/97/6 77/97/6 67/97/6
f 46/97/6 42/97/6 38/97/6
f 54/97/6 50/97/6 48/97/6
f 67/97/6 71/97/6 73/97/6
f 54/97/6 38/97/6 67/97/6
f 55/97/29 54/97/29 81/97/29
f 86/97/30 75/97/30 65/97/30
f 67/97/31 80/97/31 88/97/31
f 68/97/32 67/97/32 89/97/32
f 69/97/33 68/97/33 90/97/33
f 70/97/34 69/97/34 91/97/34
f 71/97/35 70/97/35 92/97/35
f 94/97/36 73/97/36 95/97/36
f 81/97/37 74/97/37 94/97/37
f 96/97/38 76/97/38 86/97/38
f 78/97/39 77/97/39 99/97/39
f 79/97/40 78/97/40 100/97/40
f 80/97/41 79/97/41 87/97/41
f 93/97/42 71/97/42 92/97/42
f 93/97/42 95/97/42 72/97/42
f 77/97/43 97/97/43 98/97/43
f 97/97/43 76/97/43 96/97/43
f 102/97/3 30/97/3 55/97/3
f 30/97/3 57/97/3 31/97/3
f 30/97/3 101/97/3 82/97/3
f 55/97/3 83/97/3 102/97/3
f 82/97/3 57/97/3 30/97/3
f 55/97/3 59/97/3 83/97/3
f 95/97/6 93/84/6 59/97/6
f 59/97/6 55/97/6 81/97/6
f 94/97/6 95/97/6 59/97/6
f 84/97/5 37/97/5 13/97/5
f 37/97/5 63/97/5 62/97/5
f 13/97/5 85/97/5 84/97/5
f 13/97/5 12/97/5 36/97/5
f 13/97/5 64/97/5 85/97/5
f 84/97/5 63/97/5 37/97/5
f 62/92/6 97/97/6 96/97/6
f 65/97/6 37/97/6 62/92/6
f 62/92/6 96/97/6 86/97/6
